<svg xmlns="http://www.w3.org/2000/svg" viewBox="0 0 800 600" preserveAspectRatio="xMidYMid slice"><defs><linearGradient id="as" x1="0" y1="0" x2="0" y2="1"><stop offset="0" stop-color="#F6D9A0"/><stop offset="1" stop-color="#EBC98E"/></linearGradient></defs><rect width="800" height="600" fill="url(#as)"/><circle cx="400" cy="250" r="90" fill="#F2B22E"/><circle cx="400" cy="250" r="130" fill="#F2B22E" opacity=".25"/><path d="M-20 600V330a100 100 0 0 1 200 0v270z" fill="#2B4D3D"/><path d="M200 600V300a100 100 0 0 1 200 0v300z" fill="#D9542C"/><path d="M420 600V300a100 100 0 0 1 200 0v300z" fill="#C98A3E"/><path d="M640 600V330a100 100 0 0 1 200 0v270z" fill="#2B4D3D"/><path d="M240 600V340a60 60 0 0 1 120 0v260zM460 600V340a60 60 0 0 1 120 0v260z" fill="#15291F" opacity=".35"/><path d="M20 600V360a60 60 0 0 1 120 0v240zM680 600V360a60 60 0 0 1 120 0v240z" fill="#15291F" opacity=".3"/><g fill="#F4E9D6" opacity=".9"><circle cx="300" cy="230" r="6"/><circle cx="520" cy="230" r="6"/></g></svg>
